<svg width="40" height="40" viewBox="0 0 40 40" fill="none"
    xmlns="http://www.w3.org/2000/svg">
    <g id="iconamoon:search-bold">
        <path id="Vector" d="M34.9999 35L27.7615 27.7617M27.7615 27.7617C28.9997 26.5235 29.9818 25.0536 30.6519 23.4359C31.322 21.8182 31.6669 20.0843 31.6669 18.3333C31.6669 16.5823 31.322 14.8485 30.6519 13.2308C29.9818 11.613 28.9997 10.1432 27.7615 8.90501C26.5234 7.66686 25.0535 6.68471 23.4358 6.01463C21.818 5.34455 20.0842 4.99966 18.3332 4.99966C16.5822 4.99966 14.8483 5.34455 13.2306 6.01463C11.6129 6.68471 10.143 7.66686 8.90485 8.90501C6.40431 11.4056 4.99951 14.797 4.99951 18.3333C4.99951 21.8697 6.40431 25.2611 8.90485 27.7617C11.4054 30.2622 14.7969 31.667 18.3332 31.667C21.8695 31.667 25.261 30.2622 27.7615 27.7617Z" stroke="#C6A231" stroke-width="2.5" stroke-linecap="round" stroke-linejoin="round"/>
    </g>
</svg>
