<svg width="84" height="83" viewBox="0 0 84 83" fill="none" xmlns="http://www.w3.org/2000/svg">
<g id="ph:tree-light">
<path id="Vector" d="M64.493 20.7792C62.674 16.3589 59.5623 12.5749 55.5556 9.91088C51.5489 7.2469 46.8293 5.82397 42 5.82397C37.1707 5.82397 32.4511 7.2469 28.4444 9.91088C24.4377 12.5749 21.326 16.3589 19.507 20.7792C15.4602 22.5525 12.0211 25.448 9.60692 29.1146C7.19273 32.7811 5.9072 37.061 5.90625 41.4352C5.87344 53.467 16.1208 63.8712 28.2811 64.1954C32.3862 64.2904 36.4425 63.301 40.0312 61.3293V75.2188C40.0312 75.7347 40.2387 76.2296 40.6079 76.5944C40.9771 76.9592 41.4779 77.1641 42 77.1641C42.5221 77.1641 43.0229 76.9592 43.3921 76.5944C43.7613 76.2296 43.9688 75.7347 43.9688 75.2188V61.3293C47.381 63.2048 51.2203 64.1912 55.125 64.1954H55.7058C67.8792 63.8712 78.1266 53.4637 78.0938 41.4352C78.0928 37.061 76.8073 32.7811 74.3931 29.1146C71.9789 25.448 68.5398 22.5525 64.493 20.7792ZM55.6172 60.3048C51.4432 60.4135 47.3492 59.1601 43.9688 56.7384V42.7029L58.6294 35.4599C59.0967 35.2294 59.4522 34.825 59.6178 34.3355C59.7833 33.8461 59.7453 33.3117 59.512 32.8499C59.2788 32.3882 58.8695 32.0369 58.3741 31.8733C57.8788 31.7097 57.338 31.7473 56.8706 31.9778L43.9688 38.3519V28.5313C43.9688 28.0154 43.7613 27.5206 43.3921 27.1558C43.0229 26.791 42.5221 26.586 42 26.586C41.4779 26.586 40.9771 26.791 40.6079 27.1558C40.2387 27.5206 40.0312 28.0154 40.0312 28.5313V46.1332L27.1294 39.759C26.6621 39.5286 26.1212 39.491 25.6259 39.6546C25.1305 39.8181 24.7212 40.1694 24.488 40.6312C24.2547 41.0929 24.2167 41.6273 24.3822 42.1168C24.5478 42.6062 24.9033 43.0107 25.3706 43.2411L40.0312 50.4842V56.7384C36.6484 59.1553 32.5561 60.4082 28.3828 60.3048C18.3061 60.0551 9.8175 51.4212 9.84375 41.4547C9.84355 37.7076 10.9806 34.0465 13.108 30.9446C15.2354 27.8426 18.2554 25.4423 21.7777 24.0539C22.0334 23.9518 22.2646 23.7977 22.4562 23.6016C22.6478 23.4056 22.7956 23.172 22.89 22.9159C24.3206 19.044 26.9212 15.7002 30.3395 13.3377C33.7578 10.9752 37.8285 9.70806 42 9.70806C46.1715 9.70806 50.2422 10.9752 53.6605 13.3377C57.0788 15.7002 59.6794 19.044 61.11 22.9159C61.2044 23.172 61.3522 23.4056 61.5438 23.6016C61.7354 23.7977 61.9666 23.9518 62.2224 24.0539C65.7434 25.4413 68.7625 27.84 70.8898 30.9402C73.0171 34.0403 74.1549 37.6994 74.1562 41.445C74.1825 51.4147 65.6939 60.0454 55.6172 60.3048Z" fill="#0FA958"/>
</g>
</svg>
