<svg width="88" height="83" viewBox="0 0 88 83" fill="none" xmlns="http://www.w3.org/2000/svg">
<g id="ion:water-outline">
<path id="Vector" d="M68.75 51.875C68.75 66.2006 59.1886 75.2187 44 75.2187C28.8114 75.2187 19.25 66.2006 19.25 51.875C19.25 36.5021 36.9927 15.7489 42.4342 9.74598C42.6278 9.5327 42.8681 9.36148 43.1386 9.24409C43.409 9.1267 43.7032 9.06592 44.0009 9.06592C44.2986 9.06592 44.5927 9.1267 44.8632 9.24409C45.1336 9.36148 45.3739 9.5327 45.5675 9.74598C51.0073 15.7489 68.75 36.5021 68.75 51.875Z" stroke="#699BF7" stroke-width="2.5" stroke-miterlimit="10"/>
<path id="Vector_2" d="M59.125 53.1719C59.125 56.2674 57.8212 59.2362 55.5004 61.4251C53.1797 63.614 50.0321 64.8438 46.75 64.8438" stroke="#699BF7" stroke-width="2.5" stroke-linecap="round" stroke-linejoin="round"/>
</g>
</svg>
